{
  "accessors": [
    {
      "bufferView": 2,
      "componentType": 5126,
      "count": 61178,
      "max": [
        4.302249908447266,
        -5.049552917480469,
        3.386367082595825
      ],
      "min": [
        -11.484949111938477,
        -13.8545503616333,
        -5.728984832763672
      ],
      "type": "VEC3"
    },
    {
      "bufferView": 2,
      "byteOffset": 734136,
      "componentType": 5126,
      "count": 61178,
      "max": [
        0.9999952912330627,
        0.999782919883728,
        0.9990942478179932
      ],
      "min": [
        -0.9999674558639526,
        -0.9983851909637451,
        -0.9999814629554749
      ],
      "type": "VEC3"
    },
    {
      "bufferView": 1,
      "componentType": 5126,
      "count": 61178,
      "max": [
        0.9978349804878235,
        1.0010000467300415
      ],
      "min": [
        0.00031599999056197703,
        0.0032760000322014093
      ],
      "type": "VEC2"
    },
    {
      "bufferView": 0,
      "componentType": 5125,
      "count": 284421,
      "type": "SCALAR"
    }
  ],
  "asset": {
    "extras": {
      "author": "Coltranne (https://sketchfab.com/Coltranne)",
      "license": "CC-BY-4.0 (http://creativecommons.org/licenses/by/4.0/)",
      "source": "https://sketchfab.com/3d-models/el-sillon-de-hercorando-c25826f4c06f41cb9337a8818c571e74",
      "title": "El sillón de Hercorando"
    },
    "generator": "Sketchfab-12.66.0",
    "version": "2.0"
  },
  "bufferViews": [
    {
      "buffer": 0,
      "byteLength": 1137684,
      "name": "floatBufferViews",
      "target": 34963
    },
    {
      "buffer": 0,
      "byteLength": 489424,
      "byteOffset": 1137684,
      "byteStride": 8,
      "name": "floatBufferViews",
      "target": 34962
    },
    {
      "buffer": 0,
      "byteLength": 1468272,
      "byteOffset": 1627108,
      "byteStride": 12,
      "name": "floatBufferViews",
      "target": 34962
    }
  ],
  "buffers": [
    {
      "byteLength": 3095380,
      "uri": "scene.bin"
    }
  ],
  "extensionsUsed": [
    "KHR_materials_unlit"
  ],
  "images": [
    {
      "uri": "textures/hercorando_sillon_baseColor.jpeg"
    }
  ],
  "materials": [
    {
      "doubleSided": true,
      "extensions": {
        "KHR_materials_unlit": {}
      },
      "name": "hercorando_sillon",
      "pbrMetallicRoughness": {
        "baseColorTexture": {
          "index": 0
        },
        "metallicFactor": 0.0
      }
    }
  ],
  "meshes": [
    {
      "name": "Object_0",
      "primitives": [
        {
          "attributes": {
            "NORMAL": 1,
            "POSITION": 0,
            "TEXCOORD_0": 2
          },
          "indices": 3,
          "material": 0,
          "mode": 4
        }
      ]
    }
  ],
  "nodes": [
    {
      "children": [
        1
      ],
      "matrix": [
        0.9390633702278137,
        -0.10467601567506783,
        -0.32741859555244446,
        0.0,
        0.3121500015258789,
        0.6585673689842223,
        0.6847272515296937,
        0.0,
        0.14395268261432648,
        -0.7452059388160707,
        0.6511111259460448,
        0.0,
        2.9002461433410645,
        3.804761648178097,
        15.511013984680176,
        1.0
      ],
      "name": "Sketchfab_model"
    },
    {
      "children": [
        2
      ],
      "name": "hercorando sillon.obj.cleaner.materialmerger.gles"
    },
    {
      "mesh": 0,
      "name": "Object_2"
    }
  ],
  "samplers": [
    {
      "magFilter": 9729,
      "minFilter": 9987,
      "wrapS": 10497,
      "wrapT": 10497
    }
  ],
  "scene": 0,
  "scenes": [
    {
      "name": "Sketchfab_Scene",
      "nodes": [
        0
      ]
    }
  ],
  "textures": [
    {
      "sampler": 0,
      "source": 0
    }
  ]
}
